<?xml version="1.0" encoding="UTF-8"?>
<svg version="1.1" xmlns="http://www.w3.org/2000/svg" width="1000" height="275">
<path d="M0 0 C0.80880615 0.00563965 1.6176123 0.0112793 2.45092773 0.01708984 C3.06653564 0.02434082 3.68214355 0.0315918 4.31640625 0.0390625 C4.36339479 16.38276591 4.39852533 32.72644698 4.42003059 49.07020187 C4.43028696 56.66108221 4.44423756 64.25192027 4.46728516 71.84277344 C4.48739372 78.46887407 4.50016349 85.09494404 4.50458324 91.72107434 C4.50716149 95.22054933 4.51309935 98.71993671 4.52786636 102.21938324 C4.68844968 141.91440807 0.02808732 176.84145026 -26.68359375 208.0390625 C-27.69679688 209.25335938 -27.69679688 209.25335938 -28.73046875 210.4921875 C-49.18338755 234.22951662 -78.66727305 249.18806358 -109.68359375 253.0390625 C-140.87681181 254.65592695 -165.97846955 249.9572063 -193.68359375 235.0390625 C-193.68359375 221.1790625 -193.68359375 207.3190625 -193.68359375 193.0390625 C-190.1759112 194.79290378 -188.51614202 196.01972548 -185.80859375 198.6640625 C-166.70506361 215.94820881 -141.37234981 221.37894351 -116.37109375 220.22363281 C-91.78156715 218.53488989 -69.90279807 204.93233021 -53.68359375 187.0390625 C-39.6135203 170.05096561 -32.35384417 147.91325263 -32.41235352 126.03491211 C-32.40712677 124.99598312 -32.40190002 123.95705414 -32.39651489 122.88664246 C-32.38634517 120.6512851 -32.38050689 118.41590453 -32.3786335 116.18052483 C-32.37494195 112.63566617 -32.35814089 109.09108034 -32.33787537 105.54627991 C-32.28271839 95.47483398 -32.25177134 85.40334952 -32.22729492 75.33178711 C-32.21137971 69.15281432 -32.18112664 62.97403842 -32.14253044 56.79516792 C-32.13092388 54.45056822 -32.12495047 52.10593328 -32.12484932 49.76130486 C-32.12465625 46.47860107 -32.10631695 43.19643773 -32.08422852 39.91381836 C-32.08880569 38.95717285 -32.09338287 38.00052734 -32.09809875 37.01489258 C-31.97585638 25.52812917 -28.56200991 16.50204917 -20.68359375 8.0390625 C-14.45888574 3.23385647 -7.94334105 -0.07188544 0 0 Z " fill="#A393B8" transform="translate(285.68359375,9.9609375)"/>
<path d="M0 0 C14.12124686 10.57313174 24.67639772 24.99590649 28.52734375 42.3828125 C31.0391388 61.60531015 28.8625496 79.54548699 18 96 C15.21716156 99.58156903 12.22153159 102.81139719 9 106 C8.33613281 106.69738281 7.67226562 107.39476562 6.98828125 108.11328125 C-6.30553265 121.15387965 -23.84931593 125.51635926 -41.93066406 125.34765625 C-59.40995922 124.89380369 -75.03908362 118.2274519 -87.3828125 105.78125 C-102.47698561 89.74087499 -107.83415939 72.95469275 -107.2734375 51.2109375 C-106.50270363 33.29296752 -97.8749642 18.07952819 -85 6 C-61.43223052 -15.50962523 -26.4974983 -16.65733304 0 0 Z M-69.2734375 35.625 C-75.35325816 43.98819221 -76.87284847 52.84545303 -76 63 C-73.65915235 72.97869913 -68.65333107 81.84474724 -60.15234375 87.71875 C-50.70033175 93.34535606 -41.03339005 95.88450839 -30.0859375 93.31640625 C-18.66157179 89.43855817 -11.10870062 83.48230083 -5 73 C-0.88556531 64.1222097 -0.5870139 54.33891604 -3.75 45.125 C-8.13296498 34.46538482 -15.36745281 26.57467576 -26 22 C-42.88663413 16.47660349 -58.0766943 22.42087256 -69.2734375 35.625 Z " fill="#A493B8" transform="translate(199,74)"/>
<path d="M0 0 C9.98885764 -0.1024009 17.13147134 2.50090119 24.95703125 8.94140625 C31.31167117 15.34464762 35.25760416 23.72740078 35.24050903 32.77072144 C35.24325836 33.89805191 35.24600769 35.02538239 35.24884033 36.18687439 C35.24164978 37.40895096 35.23445923 38.63102753 35.22705078 39.89013672 C35.22734283 41.18823776 35.22763489 42.48633881 35.22793579 43.82377625 C35.22850811 47.37088434 35.2167734 50.91785636 35.20278788 54.46493292 C35.19026038 58.17649484 35.18910843 61.88806009 35.18673706 65.59963989 C35.18052822 72.62245638 35.16412548 79.64521038 35.14403808 86.66799939 C35.12166052 94.66555918 35.11068099 102.66312201 35.10064721 110.66070533 C35.07975871 127.10717343 35.04459434 143.55357873 35 160 C34.34 160 33.68 160 33 160 C31.21495031 158.01966282 29.56792011 156.04062244 27.9375 153.9375 C27.20430542 152.99390625 27.20430542 152.99390625 26.45629883 152.03125 C16.32792861 138.73951191 9.08121879 124.39411551 4.25 108.375 C3.95174316 107.39104248 3.95174316 107.39104248 3.64746094 106.38720703 C-0.05065228 93.46918377 -0.27063943 80.90047521 -0.1953125 67.578125 C-0.19157521 65.62229559 -0.18873163 63.66646429 -0.18673706 61.71063232 C-0.17915691 56.60122366 -0.15955765 51.49193149 -0.1373291 46.38256836 C-0.11674863 41.15349909 -0.10770943 35.92441073 -0.09765625 30.6953125 C-0.07630567 20.46349092 -0.04223882 10.2317552 0 0 Z " fill="#B8DED6" transform="translate(31,62)"/>
<path d="M0 0 C1.08216797 -0.01224609 2.16433594 -0.02449219 3.27929688 -0.03710938 C14.7324887 -0.057721 25.91651635 0.75031805 34.72265625 8.82421875 C41.64845866 16.39665627 43.33419021 25.01349813 43.2109375 35.05859375 C42.46926033 43.5454997 38.38929992 50.68880689 31.9375 56.1875 C25.38074552 60.30596141 19.39248125 62.33051159 11.63671875 62.28515625 C10.66025391 62.28193359 9.68378906 62.27871094 8.67773438 62.27539062 C7.67033203 62.26701172 6.66292969 62.25863281 5.625 62.25 C4.59826172 62.24548828 3.57152344 62.24097656 2.51367188 62.23632812 C-0.01177882 62.22458184 -2.53710905 62.20815565 -5.0625 62.1875 C-5.04155273 63.01475586 -5.02060547 63.84201172 -4.99902344 64.69433594 C-4.91588381 68.4419337 -4.86384469 72.18933749 -4.8125 75.9375 C-4.77898437 77.23945313 -4.74546875 78.54140625 -4.7109375 79.8828125 C-4.69804687 81.13320312 -4.68515625 82.38359375 -4.671875 83.671875 C-4.65092773 84.82397461 -4.62998047 85.97607422 -4.60839844 87.16308594 C-5.0625 90.1875 -5.0625 90.1875 -6.86035156 92.60253906 C-9.0625 94.1875 -9.0625 94.1875 -12.6875 94.0625 C-16.0625 93.1875 -16.0625 93.1875 -18.0625 91.1875 C-18.26109705 88.43244914 -18.33520892 85.77791137 -18.32128906 83.02172852 C-18.3247937 82.1776947 -18.32829834 81.33366089 -18.33190918 80.46405029 C-18.34073541 77.66475275 -18.3348737 74.86570651 -18.328125 72.06640625 C-18.32947152 70.1258896 -18.33141194 68.18537328 -18.33392334 66.24485779 C-18.33687592 62.17354121 -18.33257314 58.10231227 -18.32324219 54.03100586 C-18.31185517 48.80741418 -18.31840154 43.58402817 -18.33038712 38.36044407 C-18.33760858 34.35164333 -18.33531633 30.34289148 -18.33013153 26.33408928 C-18.32879543 24.40792759 -18.33044135 22.48176148 -18.33509064 20.55560493 C-18.3401597 17.86450547 -18.33243992 15.17374052 -18.32128906 12.48266602 C-18.32533752 11.68307968 -18.32938599 10.88349335 -18.33355713 10.05967712 C-18.30414934 6.23608729 -18.23508562 4.44637843 -16.0625 1.1875 C-11.08219166 -0.70355779 -5.2392909 0.00304433 0 0 Z M-5.0625 13.1875 C-5.0625 25.0675 -5.0625 36.9475 -5.0625 49.1875 C-1.4325 49.290625 2.1975 49.39375 5.9375 49.5 C7.06542969 49.54552002 8.19335938 49.59104004 9.35546875 49.63793945 C16.07275066 49.72972178 20.89001249 48.83918298 25.9375 44.1875 C29.31610181 39.59346845 30.61514779 35.12202397 30.3203125 29.421875 C29.39512207 24.02178393 26.99574687 19.83638568 22.875 16.25 C19.00433301 13.53229764 16.44161236 13.06319877 11.83203125 13.08984375 C10.94620361 13.09234131 10.06037598 13.09483887 9.14770508 13.09741211 C7.46584106 13.11106812 7.46584106 13.11106812 5.75 13.125 C2.181875 13.145625 -1.38625 13.16625 -5.0625 13.1875 Z " fill="#AC9DBF" transform="translate(359.0625,81.8125)"/>
<path d="M0 0 C8.74908486 5.27148098 13.50865322 12.26159191 16.72753906 21.98754883 C17.37747668 25.38258013 17.37541104 28.76997573 17.41015625 32.21484375 C17.418228 32.97655884 17.42629974 33.73827393 17.43461609 34.52307129 C17.44841412 36.13010406 17.45915532 37.73716562 17.46704102 39.34423828 C17.47859762 40.98722927 17.49910726 42.63018167 17.52856445 44.27294922 C17.57116745 46.64967292 17.58739514 49.02528606 17.59765625 51.40234375 C17.61516434 52.13473267 17.63267242 52.86712158 17.65071106 53.6217041 C17.63607543 57.06110311 17.40368207 58.98639669 15.37182617 61.81054688 C13.171875 63.30859375 13.171875 63.30859375 9.546875 63.18359375 C6.171875 62.30859375 6.171875 62.30859375 4.171875 60.30859375 C3.546875 57.68359375 3.546875 57.68359375 3.171875 55.30859375 C2.66398438 55.71851563 2.15609375 56.1284375 1.6328125 56.55078125 C0.94445312 57.08960938 0.25609375 57.6284375 -0.453125 58.18359375 C-1.12601563 58.71726563 -1.79890625 59.2509375 -2.4921875 59.80078125 C-9.61859286 64.40076865 -17.64822057 63.99169359 -25.828125 63.30859375 C-33.4465605 61.46471154 -40.27611199 56.41841122 -44.40234375 49.7734375 C-49.31508498 40.21541087 -50.46673358 29.86988395 -48.1796875 19.31640625 C-44.89235382 10.29731129 -38.44738675 3.46517231 -29.828125 -0.69140625 C-20.77165094 -4.32936754 -8.82754916 -4.28047266 0 0 Z M-29.12109375 13.265625 C-33.85358452 18.32568344 -36.78978791 22.57779628 -36.84765625 29.71875 C-36.42356844 37.31794503 -34.11713666 42.32200215 -28.703125 47.62109375 C-24.49011959 50.96989292 -20.17915291 52.1856758 -14.828125 52.30859375 C-8.30897722 51.36209432 -3.139622 48.23935725 1.171875 43.30859375 C4.87014981 37.34363438 4.97966327 31.20233232 4.171875 24.30859375 C2.43843456 18.12805312 -1.45883252 13.7233739 -6.828125 10.30859375 C-14.79442075 7.33811059 -22.49785281 7.61273963 -29.12109375 13.265625 Z " fill="#AFA0C1" transform="translate(791.828125,112.69140625)"/>
<path d="M0 0 C8.6776429 5.22843592 14.20131482 12.5328464 16.72753906 22.5012207 C17.28675266 26.03440593 17.37278522 29.52531364 17.41015625 33.09375 C17.418228 33.8318541 17.42629974 34.56995819 17.43461609 35.33042908 C17.44839174 36.88440646 17.45914278 38.43841327 17.46704102 39.99243164 C17.47861071 41.58008704 17.4991406 43.16770207 17.52856445 44.75512695 C17.57116452 47.05576851 17.58739248 49.35526351 17.59765625 51.65625 C17.61516434 52.36362808 17.63267242 53.07100616 17.65071106 53.79981995 C17.63580742 57.1837671 17.37842836 59.02331871 15.37182617 61.79467773 C13.171875 63.30859375 13.171875 63.30859375 9.546875 63.18359375 C6.171875 62.30859375 6.171875 62.30859375 4.171875 60.30859375 C3.546875 57.68359375 3.546875 57.68359375 3.171875 55.30859375 C2.2128125 56.17484375 2.2128125 56.17484375 1.234375 57.05859375 C-7.35840167 63.37165416 -15.20572802 64.42978255 -25.828125 63.30859375 C-33.45326789 61.4328308 -40.30304981 56.43142123 -44.40234375 49.73828125 C-49.31351906 40.08479626 -50.43362858 29.89121305 -48.1796875 19.24609375 C-44.89793955 10.27037287 -38.40287522 3.44370694 -29.828125 -0.69140625 C-20.77165094 -4.32936754 -8.82754916 -4.28047266 0 0 Z M-29.703125 13.74609375 C-30.404375 14.59171875 -31.105625 15.43734375 -31.828125 16.30859375 C-32.385 16.92734375 -32.941875 17.54609375 -33.515625 18.18359375 C-37.33694457 24.3704921 -37.17822359 30.42080264 -35.828125 37.30859375 C-33.88651635 43.13341971 -29.91016195 47.01819017 -24.828125 50.30859375 C-18.89157066 52.73284584 -13.79031422 52.75192006 -7.86328125 50.34765625 C-2.5358076 47.6276793 1.04081025 44.09360742 3.4765625 38.6796875 C5.27884679 32.53369558 5.21736075 25.82696414 2.609375 19.93359375 C-0.5766087 14.54883257 -4.67874083 11.11005903 -10.515625 8.93359375 C-17.74741858 7.5691044 -24.08497778 8.98288198 -29.703125 13.74609375 Z " fill="#AEA0C0" transform="translate(456.828125,112.69140625)"/>
<path d="M0 0 C6.05214015 4.9159577 10.36863832 11.03068765 12.7890625 18.45703125 C13.08958534 21.42861272 13.09317013 24.38613324 13.08984375 27.37109375 C13.09412888 28.22254974 13.098414 29.07400574 13.10282898 29.95126343 C13.10855542 31.74484367 13.109085 33.53844714 13.10473633 35.33203125 C13.10156504 38.07982631 13.12509484 40.82655577 13.15039062 43.57421875 C13.15266262 45.31900906 13.15336758 47.06380226 13.15234375 48.80859375 C13.1615535 49.63050201 13.17076324 50.45241028 13.18025208 51.29922485 C13.133659 57.01747907 13.133659 57.01747907 11.4493866 59.16586304 C9.7890625 60.45703125 9.7890625 60.45703125 6.8515625 60.95703125 C3.7890625 60.45703125 3.7890625 60.45703125 1.4765625 58.08203125 C-0.2109375 55.45703125 -0.2109375 55.45703125 -1.2109375 53.45703125 C-2.22414063 54.08931641 -2.22414063 54.08931641 -3.2578125 54.734375 C-4.14984375 55.28222656 -5.041875 55.83007812 -5.9609375 56.39453125 C-6.84265625 56.93980469 -7.724375 57.48507813 -8.6328125 58.046875 C-15.55819362 61.83484861 -24.51095472 61.46508767 -32.0703125 59.84375 C-39.87812925 57.09161584 -45.68752534 51.73788926 -49.5859375 44.45703125 C-53.84649565 34.78594129 -54.71856163 24.53933248 -51.2109375 14.45703125 C-47.20828945 5.62406894 -41.15203611 -0.79256423 -32.0859375 -4.48046875 C-21.07359583 -7.56623875 -9.4122689 -6.56863289 0 0 Z M-35.7109375 12.83203125 C-40.22232667 18.85996084 -41.09896327 25.08641738 -40.2109375 32.45703125 C-38.46737985 38.71798825 -35.76540525 42.89378779 -30.2109375 46.45703125 C-24.48009802 49.3719496 -19.80838746 49.91076455 -13.5703125 48.3125 C-6.72556146 45.83071113 -3.27589355 41.94059213 -0.2109375 35.45703125 C2.11265447 29.45441866 1.13116111 23.03602379 -1.3046875 17.2734375 C-3.9605296 11.9503057 -7.71342165 8.67342104 -13.2109375 6.45703125 C-21.60393617 4.02337364 -29.79501099 6.35473945 -35.7109375 12.83203125 Z " fill="#AD9EBF" transform="translate(956.2109375,115.54296875)"/>
<path d="M0 0 C7.19715908 4.65545966 11.20689317 10.95894505 14 19 C16.24350757 30.25736341 14.96933394 40.10802872 8.6875 49.7421875 C3.5619053 56.60004337 -2.63275679 60.15672117 -11 62 C-22.25851221 63.17877585 -32.36038547 62.03090642 -41.375 54.8125 C-49.11065601 47.34632381 -51.73750239 38.61243066 -52.1015625 28.0546875 C-51.774571 18.42101487 -48.30204205 9.70873777 -41.25 3 C-29.8414315 -5.75441748 -12.5825805 -7.70596794 0 0 Z M-35 15 C-38.45107024 20.83111868 -39.8232994 26.21647678 -39 33 C-37.19339418 39.78251441 -34.85441195 44.0970587 -29 48 C-28.071875 48.61875 -28.071875 48.61875 -27.125 49.25 C-20.09514954 51.73112369 -14.64031758 51.15384286 -8 48 C-2.42840571 44.4257697 0.22747141 40.26359822 2 34 C3.07672133 27.00131134 1.86709038 20.94849491 -2 15 C-6.60769055 9.67378344 -11.44591975 7.58385644 -18.4375 6.6875 C-25.14709284 7.50574303 -30.26075801 10.26075801 -35 15 Z " fill="#AEA0C0" transform="translate(598,114)"/>
<path d="M0 0 C1.9375 2.0625 1.9375 2.0625 3 4 C4.0725 3.360625 5.145 2.72125 6.25 2.0625 C13.76796213 -2.41936204 24.49278366 -2.37680408 32.875 -0.28125 C37.4795657 1.64768968 40.73656713 4.1771215 44 8 C44.721875 8.804375 45.44375 9.60875 46.1875 10.4375 C51.04139783 17.29990728 51.15131001 25.79918391 51.23828125 33.9453125 C51.246353 34.67821503 51.25442474 35.41111755 51.26274109 36.16622925 C51.27647737 37.70405785 51.28724552 39.2419156 51.29516602 40.77978516 C51.30674915 42.34693383 51.32729963 43.91404115 51.35668945 45.48095703 C51.39935406 47.761011 51.4155236 50.03990914 51.42578125 52.3203125 C51.44328934 53.01625519 51.46079742 53.71219788 51.47883606 54.42922974 C51.46307633 57.97237481 51.05321003 59.91450435 49.16479492 62.94873047 C47 65 47 65 43.9375 65.5 C41 65 41 65 39.1875 63.6875 C36.4071442 59.73646808 36.83240096 55.40798615 36.7890625 50.7890625 C36.76099447 49.13540676 36.73233001 47.48176105 36.703125 45.828125 C36.66187726 43.22558874 36.62498218 40.62323999 36.59863281 38.02050781 C36.57097405 35.50546782 36.5251064 32.99127463 36.4765625 30.4765625 C36.47330963 29.70245026 36.47005676 28.92833801 36.46670532 28.13076782 C36.36254526 23.53651762 35.6336225 20.75319634 33 17 C33 16.34 33 15.68 33 15 C26.72658095 12.07240444 19.97566797 10.04531486 13.1875 12.0625 C9.25798581 13.62735078 6.66712689 15.66609139 4 19 C2.70033461 22.89899616 2.84473345 26.61912887 2.82421875 30.68359375 C2.80102629 32.43295482 2.77690919 34.18230383 2.75195312 35.93164062 C2.71680125 38.68798976 2.68746893 41.44389312 2.67407227 44.20043945 C2.65860754 46.86203751 2.6184172 49.52233812 2.57421875 52.18359375 C2.57612717 53.00661484 2.57803558 53.82963593 2.58000183 54.67759705 C2.49923915 58.45262964 2.41530943 60.41264902 0.19067383 63.55883789 C-2 65 -2 65 -5.625 64.875 C-9 64 -9 64 -11 62 C-11.26742554 59.50184631 -11.26742554 59.50184631 -11.29052734 56.31274414 C-11.30328705 55.12133316 -11.31604675 53.92992218 -11.32919312 52.70240784 C-11.33141876 51.40971481 -11.33364441 50.11702179 -11.3359375 48.78515625 C-11.3423623 47.4499853 -11.34909042 46.11481578 -11.35610962 44.77964783 C-11.36809311 41.97944881 -11.37178935 39.17937325 -11.37060547 36.37915039 C-11.37040218 32.78972595 -11.3977085 29.20109241 -11.43214989 25.61185551 C-11.45438026 22.85375834 -11.45844423 20.09585269 -11.45738602 17.33767509 C-11.46089661 15.37057011 -11.48258455 13.40352489 -11.50448608 11.4365387 C-11.49833282 10.24197556 -11.49217957 9.04741241 -11.48583984 7.81665039 C-11.48868988 6.76345108 -11.49153992 5.71025177 -11.49447632 4.62513733 C-11 2 -11 2 -9.19229126 0.1325531 C-5.83130816 -1.60375443 -3.57121662 -0.97396817 0 0 Z " fill="#AD9EBF" transform="translate(837,111)"/>
<path d="M0 0 C1.71484375 2.05859375 1.71484375 2.05859375 3 4 C3.52464844 3.6390625 4.04929687 3.278125 4.58984375 2.90625 C12.62656424 -1.90775894 20.88443139 -2.31917843 30 -1 C37.31257314 1.02816914 42.98286615 5.57471694 47 12 C49.72681032 18.15212651 50.45622284 23.17240597 50.43359375 29.86328125 C50.4388356 30.77708054 50.44407745 31.69087982 50.44947815 32.63237 C50.45586309 34.54925525 50.45460746 36.46617987 50.44604492 38.38305664 C50.4374728 41.32182459 50.46644398 44.25868618 50.49804688 47.19726562 C50.49965754 49.06510359 50.49908394 50.93294499 50.49609375 52.80078125 C50.51294472 54.11795891 50.51294472 54.11795891 50.53013611 55.46174622 C50.46098798 61.46790847 50.46098798 61.46790847 48.19555664 64.08276367 C44.84963091 65.48058898 42.4468552 64.89362913 39 64 C36.45102532 60.17653798 36.70330889 57.03770549 36.69140625 52.60546875 C36.66623996 50.91080395 36.64084203 49.21614257 36.61523438 47.52148438 C36.58653512 44.8553969 36.56251319 42.1893691 36.54370117 39.52319336 C36.52196895 36.94613382 36.48251802 34.36978155 36.44140625 31.79296875 C36.44129044 31.00214401 36.44117462 30.21131927 36.4410553 29.39653015 C36.33525307 23.44240911 35.06842261 19.25646102 30.9375 14.75 C26.11984636 11.87990847 21.13914178 10.52392163 15.52734375 11.375 C10.53702631 12.84127023 7.35277984 14.91379957 4 19 C2.35335684 22.29328631 2.79945736 25.96307519 2.75390625 29.5859375 C2.72096713 31.33854665 2.6877555 33.09115069 2.65429688 34.84375 C2.60688274 37.61096676 2.56245513 40.37816291 2.52319336 43.14550781 C2.48345618 45.81337167 2.43191454 48.48080896 2.37890625 51.1484375 C2.3704921 51.97459564 2.36207794 52.80075378 2.35340881 53.65194702 C2.19561892 60.99106269 2.19561892 60.99106269 0 64 C-2.79870027 65.39935013 -4.90498792 65.25265405 -8 65 C-9.66615295 63.84692383 -9.66615295 63.84692383 -11 62 C-11.38768005 59.3815918 -11.38768005 59.3815918 -11.40405273 56.19921875 C-11.41673691 55.0078833 -11.42942108 53.81654785 -11.44248962 52.58911133 C-11.43955399 51.30157959 -11.43661835 50.01404785 -11.43359375 48.6875 C-11.43815457 47.35375705 -11.44345985 46.02001646 -11.44947815 44.6862793 C-11.4584117 41.89199267 -11.45598326 39.09799182 -11.44604492 36.30371094 C-11.43454784 32.72211699 -11.45477493 29.14150788 -11.48396206 25.56004333 C-11.50230351 22.80621066 -11.50203598 20.05261499 -11.49632454 17.29873657 C-11.49609649 15.33608826 -11.51301225 13.3734623 -11.53013611 11.41088867 C-11.52075516 10.21955322 -11.51137421 9.02821777 -11.50170898 7.80078125 C-11.50154282 6.75059814 -11.50137665 5.70041504 -11.50120544 4.6184082 C-11 2 -11 2 -9.19129944 0.13354492 C-5.83113947 -1.60464394 -3.57111395 -0.97394017 0 0 Z " fill="#AE9FC0" transform="translate(641,111)"/>
<path d="M0 0 C1.78125 2.39453125 1.78125 2.39453125 3.5 5.8125 C3.8196875 6.440354 4.139375 7.06820801 4.46875 7.71508789 C10.28306894 19.32101359 15.60280599 31.19610935 21 43 C24.17287614 39.27665787 25.91590932 35.05252251 27.87109375 30.62109375 C28.61749983 28.96143617 29.36425525 27.30193566 30.11132812 25.64257812 C31.2786014 23.03521681 32.44240363 20.42643517 33.59985352 17.81469727 C34.72232976 15.28740121 35.85824964 12.76650041 36.99609375 10.24609375 C37.33789169 9.46479599 37.67968964 8.68349823 38.03184509 7.87852478 C41.19999287 0.90071902 41.19999287 0.90071902 45 -1 C48.67293796 -0.77962372 50.36966546 -0.63033454 53 2 C53.75462794 7.56329644 51.73676512 11.45215369 49.34375 16.30078125 C48.96319458 17.09542282 48.58263916 17.89006439 48.19055176 18.70878601 C46.97121964 21.24875592 45.73608678 23.78064828 44.5 26.3125 C43.69943615 27.97148222 42.89994719 29.63098359 42.1015625 31.29101562 C40.91341673 33.7611994 39.72280474 36.22995903 38.5222168 38.69412231 C36.54503861 42.75590536 34.61123586 46.8290106 32.76171875 50.95068359 C32.40630005 51.73477097 32.05088135 52.51885834 31.68469238 53.32670593 C31.01670038 54.80680376 30.35877665 56.29150199 29.71276855 57.78132629 C28.43548263 60.59596254 27.48665533 62.65570626 24.92773438 64.46606445 C22.17837482 65.2275702 20.67571906 65.00339465 18 64 C14.59273569 60.29285507 12.4677882 56.2091805 10.390625 51.671875 C10.06012146 50.96460266 9.72961792 50.25733032 9.38909912 49.52862549 C8.33631516 47.27200514 7.29295074 45.01117918 6.25 42.75 C5.22374125 40.54281411 4.19558367 38.33651936 3.1673584 36.13024902 C2.48265126 34.65753035 1.80044062 33.18364843 1.12072754 31.70861816 C-0.6422076 27.88651096 -2.4385902 24.0863706 -4.29882812 20.31054688 C-4.6702594 19.54816711 -5.04169067 18.78578735 -5.42437744 18.00030518 C-6.1316925 16.55185022 -6.84808219 15.10777765 -7.57513428 13.66912842 C-9.53479333 9.63068624 -10.60457195 6.4951507 -10 2 C-6.58040243 -1.02878642 -4.26244981 -1.55831499 0 0 Z " fill="#B1A2C2" transform="translate(488,111)"/>
<path d="M0 0 C1.82421875 0.05078125 1.82421875 0.05078125 4 1 C5.46168386 3.05841253 6.63878725 4.97350463 7.8125 7.1875 C8.32200195 8.1151416 8.32200195 8.1151416 8.84179688 9.06152344 C9.91375653 11.03142332 10.96075819 13.01266103 12 15 C12.34595215 15.66016113 12.6919043 16.32032227 13.04833984 17.00048828 C19 28.44206628 19 28.44206628 19 31 C19.66 31 20.32 31 21 31 C21.15782959 30.47140381 21.31565918 29.94280762 21.47827148 29.39819336 C23.44500897 23.13581257 26.08759297 17.40405688 29.0625 11.5625 C29.50916016 10.66595703 29.95582031 9.76941406 30.41601562 8.84570312 C33.73226159 2.26773841 33.73226159 2.26773841 36 0 C39.53571429 0.53571429 39.53571429 0.53571429 41 2 C41.10106874 4.87264056 41.13969672 7.72073628 41.1328125 10.59375 C41.13376923 11.45560913 41.13472595 12.31746826 41.13571167 13.20544434 C41.1363935 15.03133212 41.13453904 16.85722231 41.13037109 18.68310547 C41.12502286 21.48801078 41.13031599 24.29275595 41.13671875 27.09765625 C41.13605797 28.86718786 41.13477681 30.63671936 41.1328125 32.40625 C41.13483673 33.25102905 41.13686096 34.09580811 41.13894653 34.96618652 C41.11495031 40.88504969 41.11495031 40.88504969 40 42 C37.5 42.125 37.5 42.125 35 42 C33.34920558 40.34920558 33.77450553 38.36263821 33.68359375 36.08984375 C33.64169922 35.10048828 33.59980469 34.11113281 33.55664062 33.09179688 C33.51732422 32.05087891 33.47800781 31.00996094 33.4375 29.9375 C33.39431641 28.89271484 33.35113281 27.84792969 33.30664062 26.77148438 C33.20018775 24.18113116 33.0981724 21.59067814 33 19 C32.70754395 19.59538574 32.41508789 20.19077148 32.11376953 20.80419922 C30.78836183 23.49654862 29.45676446 26.18578967 28.125 28.875 C27.66480469 29.81214844 27.20460938 30.74929687 26.73046875 31.71484375 C26.28574219 32.61074219 25.84101562 33.50664062 25.3828125 34.4296875 C24.97434082 35.25710449 24.56586914 36.08452148 24.14501953 36.93701172 C23 39 23 39 21 41 C19.03393555 40.88647461 19.03393555 40.88647461 17 40 C15.64379883 38.17407227 15.64379883 38.17407227 14.45703125 35.81640625 C14.02326172 34.97142578 13.58949219 34.12644531 13.14257812 33.25585938 C12.48418945 31.92264648 12.48418945 31.92264648 11.8125 30.5625 C11.36197266 29.67755859 10.91144531 28.79261719 10.44726562 27.88085938 C9.2852417 25.59339699 8.13832122 23.29932273 7 21 C6.67 20.34 6.34 19.68 6 19 C5.97494385 19.6612085 5.9498877 20.32241699 5.92407227 21.00366211 C5.80846898 23.98182305 5.68558246 26.9596392 5.5625 29.9375 C5.52318359 30.97841797 5.48386719 32.01933594 5.44335938 33.09179688 C5.40146484 34.08115234 5.35957031 35.07050781 5.31640625 36.08984375 C5.27974854 37.00628662 5.24309082 37.92272949 5.20532227 38.86694336 C5 41 5 41 4 42 C2.33382885 42.04063832 0.66611905 42.042721 -1 42 C-1.02464638 36.17928378 -1.0428343 30.35859766 -1.05493164 24.5378418 C-1.05997267 22.55606559 -1.06680538 20.57429311 -1.07543945 18.5925293 C-1.08751515 15.75047891 -1.09323045 12.90847753 -1.09765625 10.06640625 C-1.10281754 9.17474258 -1.10797882 8.28307892 -1.11329651 7.36439514 C-1.11349177 5.24259399 -1.0621003 3.1208922 -1 1 C-0.67 0.67 -0.34 0.34 0 0 Z " fill="#BCAFCB" transform="translate(886,220)"/>
<path d="M0 0 C2.14607871 3.05735889 2.25694001 5.75831961 2.2746582 9.42358398 C2.28419022 10.50828476 2.29372223 11.59298553 2.30354309 12.71055603 C2.30263168 13.87728348 2.30172028 15.04401093 2.30078125 16.24609375 C2.30506638 17.44935806 2.3093515 18.65262238 2.31376648 19.89234924 C2.31950898 22.43677135 2.32001064 24.98120987 2.31567383 27.52563477 C2.31251495 31.41906739 2.33597157 35.31173951 2.36132812 39.20507812 C2.36360121 41.67708237 2.36430457 44.14908867 2.36328125 46.62109375 C2.372491 47.78579697 2.38170074 48.95050018 2.39118958 50.15049744 C2.38496078 51.23835037 2.37873199 52.32620331 2.37231445 53.44702148 C2.37294388 54.4009227 2.3735733 55.35482391 2.3742218 56.33763123 C1.92373446 59.54258464 0.93351869 61.42002636 -1 64 C-3.9375 65 -3.9375 65 -7 65 C-10.16748634 63.28784522 -10.84578536 62.46264391 -12 59 C-12.10263417 57.26277951 -12.14845939 55.52194177 -12.16113281 53.78173828 C-12.17074036 52.71698273 -12.1803479 51.65222717 -12.19024658 50.5552063 C-12.19449646 49.40519135 -12.19874634 48.25517639 -12.203125 47.0703125 C-12.20882507 45.88782928 -12.21452515 44.70534607 -12.22039795 43.48703003 C-12.22984965 40.98371272 -12.2363826 38.48038297 -12.24023438 35.97705078 C-12.24994362 32.14724039 -12.2809678 28.31796574 -12.3125 24.48828125 C-12.31902969 22.05729486 -12.32428029 19.62630462 -12.328125 17.1953125 C-12.3404718 16.04934601 -12.3528186 14.90337952 -12.36553955 13.72268677 C-12.36253845 12.65162689 -12.35953735 11.58056702 -12.35644531 10.47705078 C-12.36009094 9.53789825 -12.36373657 8.59874573 -12.36749268 7.63113403 C-11.92515261 4.46411579 -10.86136542 2.57847206 -9 0 C-5.81926598 -1.59036701 -3.37573597 -0.78365299 0 0 Z " fill="#AD9EBF" transform="translate(723,111)"/>
<path d="M0 0 C1.07217773 0.00483398 1.07217773 0.00483398 2.16601562 0.00976562 C2.86146484 -0.00634766 3.55691406 -0.02246094 4.2734375 -0.0390625 C10.0254735 -0.04443322 15.06892233 0.9929921 19.35351562 5.13476562 C20.82200606 7.99016369 21.34967252 10.10118791 21.47851562 13.32226562 C20.04101562 16.69726562 20.04101562 16.69726562 18.47851562 19.32226562 C19.71601563 20.52882812 19.71601563 20.52882812 20.97851562 21.75976562 C23.77923131 25.13498709 24.15900122 27.82325253 23.90429688 32.13867188 C23.23476692 35.57231633 21.76210693 37.72150886 19.47851562 40.32226562 C16.36352125 42.28582085 13.96088511 42.56950469 10.31054688 42.55273438 C9.33537109 42.55080078 8.36019531 42.54886719 7.35546875 42.546875 C5.83856445 42.52850586 5.83856445 42.52850586 4.29101562 42.50976562 C3.26814453 42.50912109 2.24527344 42.50847656 1.19140625 42.5078125 C-6.38116186 42.46258814 -6.38116186 42.46258814 -7.52148438 41.32226562 C-7.63497598 38.46132345 -7.68566929 35.62543107 -7.68945312 32.76367188 C-7.69278152 31.90418442 -7.69610992 31.04469696 -7.69953918 30.15916443 C-7.70461208 28.33747901 -7.7069474 26.51578427 -7.70678711 24.6940918 C-7.7089724 21.90007273 -7.72712082 19.10644906 -7.74609375 16.3125 C-7.74902778 14.54622532 -7.75101251 12.77994875 -7.75195312 11.01367188 C-7.75913864 10.17405411 -7.76632416 9.33443634 -7.77372742 8.46937561 C-7.74688558 1.68673846 -6.95448929 0.07210121 0 0 Z M-0.52148438 6.32226562 C-0.52148438 9.95226562 -0.52148438 13.58226562 -0.52148438 17.32226562 C1.41532723 17.40334146 3.35310902 17.46149037 5.29101562 17.50976562 C6.36996094 17.54457031 7.44890625 17.579375 8.56054688 17.61523438 C11.46489603 17.57232866 11.46489603 17.57232866 13.33398438 15.96679688 C14.65575429 14.30094812 14.65575429 14.30094812 14.97851562 11.82226562 C14.69878732 9.19139515 14.69878732 9.19139515 12.60351562 7.50976562 C8.10231583 5.7993097 4.28064894 6.13018029 -0.52148438 6.32226562 Z M-0.52148438 23.32226562 C-0.52148438 27.61226562 -0.52148438 31.90226562 -0.52148438 36.32226562 C1.72686058 36.45752702 3.97754076 36.55437367 6.22851562 36.63476562 C8.10796875 36.72177734 8.10796875 36.72177734 10.02539062 36.81054688 C13.62033996 36.64587838 13.62033996 36.64587838 15.92773438 33.96679688 C17.68772585 31.45556577 17.68772585 31.45556577 17.54101562 28.69726562 C16.10867044 25.49555285 14.61583627 24.83459284 11.47851562 23.32226562 C8.35497774 22.9621423 8.35497774 22.9621423 5.16601562 23.13476562 C2.35070312 23.22757813 2.35070312 23.22757813 -0.52148438 23.32226562 Z " fill="#BBAFCA" transform="translate(429.521484375,219.677734375)"/>
<path d="M0 0 C1.28648437 -0.01675781 2.57296875 -0.03351562 3.8984375 -0.05078125 C9.43193131 0.48864739 13.33681856 2.39113683 16.875 6.6875 C17.35453125 7.25210937 17.8340625 7.81671875 18.328125 8.3984375 C22.3333252 14.30972695 22.33544042 20.39694704 21.625 27.3125 C19.94020916 33.37572933 16.1007157 38.21532993 10.625 41.3125 C3.78586569 43.65084244 -2.5947239 43.86007928 -9.375 41.3125 C-14.85649749 38.57175125 -17.72887325 34.71017688 -20.375 29.3125 C-22.53965531 22.21571867 -21.54228696 16.26251352 -18.6484375 9.58203125 C-14.53092954 2.2437732 -8.00902653 0.02397912 0 0 Z M-10.1875 9.6875 C-14.104774 14.3882288 -14.82467098 17.8024154 -14.69140625 23.84375 C-14.07470296 28.65555841 -11.36840629 31.31909371 -8.0625 34.625 C-4.17244989 37.06758961 -0.84504556 37.83518754 3.7109375 36.87109375 C9.41091028 35.01701338 11.93003073 32.2181616 14.9375 27.0625 C16.30202027 21.60441894 15.44224887 16.88862282 12.875 11.9375 C9.80754395 8.35880128 7.26775825 6.77675777 2.75 5.5 C-2.5601154 5.18139308 -6.11613785 6.24946085 -10.1875 9.6875 Z " fill="#CEE8E3" transform="translate(362.375,9.6875)"/>
<path d="M0 0 C1.093125 0.66 2.18625 1.32 3.3125 2 C3.3125 3.65 3.3125 5.3 3.3125 7 C1.0625 7.6875 1.0625 7.6875 -1.6875 8 C-2.265 7.525625 -2.8425 7.05125 -3.4375 6.5625 C-6.98238267 4.10077592 -10.50953407 4.34719282 -14.6875 5 C-19.07049083 7.19149542 -21.88824724 9.40190962 -23.6875 14 C-24.36612867 18.92634148 -24.34524078 23.43887695 -22.0625 27.9375 C-19.3241565 31.46852189 -17.9814022 32.75086481 -13.6875 34 C-9.97555574 33.933441 -6.35802557 33.5420883 -2.6875 33 C-2.6875 30.03 -2.6875 27.06 -2.6875 24 C-5.6575 24 -8.6275 24 -11.6875 24 C-12.06968767 22.34385343 -12.40145102 20.67542976 -12.6875 19 C-11.6875 18 -11.6875 18 -8.5625 17.8671875 C-7.28375 17.86976563 -6.005 17.87234375 -4.6875 17.875 C-3.40875 17.87242187 -2.13 17.86984375 -0.8125 17.8671875 C2.3125 18 2.3125 18 3.3125 19 C3.54674843 21.79022502 3.68340329 24.51773446 3.75 27.3125 C3.79576172 28.08529297 3.84152344 28.85808594 3.88867188 29.65429688 C3.93342536 31.91726654 3.88744067 33.80870607 3.3125 36 C-1.56432057 40.25967134 -6.00518341 41.31910387 -12.28125 41.20703125 C-17.94159019 40.72002146 -22.11172198 39.00724328 -26 34.8125 C-30.41085749 29.1036245 -32.4503905 23.24745978 -31.6875 16 C-30.48395471 9.38050093 -27.97321376 5.68403318 -22.8203125 1.41015625 C-15.87939773 -3.17898337 -7.46365132 -3.74510618 0 0 Z " fill="#C0B4CE" transform="translate(965.6875,222)"/>
<path d="M0 0 C0 5.61 0 11.22 0 17 C7.92 17 15.84 17 24 17 C24 11.39 24 5.78 24 0 C28 -1 28 -1 30 0 C30 13.53 30 27.06 30 41 C28.35 41 26.7 41 25 41 C24 40 24 40 23.90234375 36.18359375 C23.90808862 34.60152953 23.92110407 33.01948969 23.9375 31.4375 C23.958125 28.653125 23.97875 25.86875 24 23 C16.08 23 8.16 23 0 23 C0 28.94 0 34.88 0 41 C-1.65 41 -3.3 41 -5 41 C-6 40 -6 40 -6.11352539 36.21459961 C-6.11336622 34.52717271 -6.10766917 32.83974095 -6.09765625 31.15234375 C-6.0962413 30.2659169 -6.09482635 29.37949005 -6.09336853 28.46620178 C-6.08775215 25.62326746 -6.07519691 22.78041069 -6.0625 19.9375 C-6.05748711 18.01497509 -6.05292384 16.09244896 -6.04882812 14.16992188 C-6.03777741 9.44658451 -6.02050183 4.72330542 -6 0 C-4 -1 -4 -1 0 0 Z " fill="#BEB3CD" transform="translate(564,221)"/>
<path d="M0 0 C1.65 0.33 3.3 0.66 5 1 C5.33 5.62 5.66 10.24 6 15 C7.65 14.01 9.3 13.02 11 12 C16.55300933 11.47114197 20.30338225 11.69101931 25 15 C28.71670565 19.79259412 29.64257352 23.58793049 29.39453125 29.6328125 C28.61295146 34.32229124 25.60505085 38.02191452 22 41 C17.65201052 42.44932983 13.54404655 42.51669065 9 42 C3.86691209 39.38679161 0.8202092 36.46062759 -1 31 C-1.0954867 28.72813727 -1.13073537 26.45355506 -1.1328125 24.1796875 C-1.13376923 23.52042267 -1.13472595 22.86115784 -1.13571167 22.18191528 C-1.13639105 20.79168604 -1.13455367 19.40145359 -1.13037109 18.01123047 C-1.12500228 15.87590486 -1.13033293 13.74078797 -1.13671875 11.60546875 C-1.13605826 10.25520787 -1.1347777 8.90494711 -1.1328125 7.5546875 C-1.13168457 6.32218262 -1.13055664 5.08967773 -1.12939453 3.81982422 C-1 1 -1 1 0 0 Z M6 23 C4.76954102 26.69137694 4.62851191 28.221644 6.3125 31.75 C7.95138641 34.04566731 7.95138641 34.04566731 10 36 C13.08691892 36.40484183 15.03803262 36.63309226 18 36 C21.14648253 33.43144284 22.75171045 31.9939561 23.25390625 27.9609375 C23.0202944 24.18067296 22.34081557 22.38950351 19.8125 19.5 C13.67082877 16.22444201 10.12972755 17.57235807 6 23 Z " fill="#CDE7E2" transform="translate(392,10)"/>
<path d="M0 0 C3.5677811 2.35149209 5.84221079 4.99692157 7.75 8.8125 C7.83342159 10.26098582 7.85732861 11.71320869 7.84765625 13.1640625 C7.84443359 14.01484375 7.84121094 14.865625 7.83789062 15.7421875 C7.82951172 16.63164063 7.82113281 17.52109375 7.8125 18.4375 C7.80798828 19.3346875 7.80347656 20.231875 7.79882812 21.15625 C7.78702591 23.37506648 7.77056155 25.59375018 7.75 27.8125 C5.375 28.4375 5.375 28.4375 2.75 28.8125 C2.09 28.1525 1.43 27.4925 0.75 26.8125 C0.19054687 27.13476562 -0.36890625 27.45703125 -0.9453125 27.7890625 C-4.94943449 29.56716413 -8.95735721 29.34823267 -13.25 28.8125 C-17.38041615 26.93503811 -18.86157654 25.48576733 -21.125 21.5625 C-22.75836284 16.11795719 -23.06295969 12.0374423 -21.0625 6.5625 C-16.01664495 -1.09328008 -8.4494098 -3.08728435 0 0 Z M-15.25 9.8125 C-16.48045898 13.50387694 -16.62148809 15.034144 -14.9375 18.5625 C-13.29861359 20.85816731 -13.29861359 20.85816731 -11.25 22.8125 C-8.16308108 23.21734183 -6.21196738 23.44559226 -3.25 22.8125 C-0.10351747 20.24394284 1.50171045 18.8064561 2.00390625 14.7734375 C1.7702944 10.99317296 1.09081557 9.20200351 -1.4375 6.3125 C-7.57917123 3.03694201 -11.12027245 4.38485807 -15.25 9.8125 Z " fill="#CFE8E3" transform="translate(472.25,23.1875)"/>
<path d="M0 0 C2.37466732 3.79946771 3.35989773 8.02716529 3.5625 12.5 C1.5625 14.5 1.5625 14.5 -0.50048828 14.72705078 C-1.74161377 14.71134033 -1.74161377 14.71134033 -3.0078125 14.6953125 C-3.90371094 14.68886719 -4.79960937 14.68242187 -5.72265625 14.67578125 C-6.65980469 14.65902344 -7.59695313 14.64226562 -8.5625 14.625 C-9.50738281 14.61597656 -10.45226562 14.60695312 -11.42578125 14.59765625 C-13.76327292 14.57404522 -16.10026123 14.54111516 -18.4375 14.5 C-16.57183512 18.12793998 -16.57183512 18.12793998 -13.4375 20.5 C-8.65360858 20.68760359 -4.15727508 20.27057552 0.5625 19.5 C0.8925 20.49 1.2225 21.48 1.5625 22.5 C-1.00871742 25.64259906 -3.50345646 26.6257681 -7.4375 27.5 C-12.6187408 27.50913799 -17.45127568 27.03065583 -21.4375 23.5 C-24.73076742 18.70092938 -26.27615778 14.37060446 -25.4375 8.5 C-24.00489167 4.36305617 -22.4550248 1.30880176 -19 -1.4375 C-12.38469471 -4.18043146 -6.18836585 -3.80822514 0 0 Z M-18.4375 6.5 C-18.7675 7.49 -19.0975 8.48 -19.4375 9.5 C-14.1575 9.5 -8.8775 9.5 -3.4375 9.5 C-4.05162818 5.58574929 -4.05162818 5.58574929 -6.1875 3.75 C-11.3639983 0.87416761 -14.40525198 2.57975887 -18.4375 6.5 Z " fill="#C3B8D0" transform="translate(483.4375,235.5)"/>
<path d="M0 0 C3.84458266 3.28391435 5.23449558 5.90717347 5.875 10.8125 C6.0546875 13.14453125 6.0546875 13.14453125 6 15 C5 16 5 16 2.95874023 16.11352539 C2.08419189 16.10828857 1.20964355 16.10305176 0.30859375 16.09765625 C-0.63564453 16.09443359 -1.57988281 16.09121094 -2.55273438 16.08789062 C-3.54595703 16.07951172 -4.53917969 16.07113281 -5.5625 16.0625 C-6.55958984 16.05798828 -7.55667969 16.05347656 -8.58398438 16.04882812 C-11.05604849 16.03700007 -13.52799518 16.02051849 -16 16 C-14.64004675 19.03018104 -14.64004675 19.03018104 -12.25 21.25 C-7.22438735 22.92520422 -2.12165957 21.81946553 3 21 C3.33 22.32 3.66 23.64 4 25 C-1.30661579 28.8141301 -6.33862909 29.36708564 -12.625 28.5 C-17.12611814 26.49950305 -19.84594312 24.49706612 -22 20 C-22.98734713 14.73193981 -23.24508788 9.599394 -20.88671875 4.67578125 C-18.47390079 1.57358673 -16.25294608 0.11931419 -12.6875 -1.5625 C-8.02752203 -2.11537874 -4.34211011 -1.82954078 0 0 Z M-16 9 C-16 9.66 -16 10.32 -16 11 C-10.72 11 -5.44 11 0 11 C-2.16666667 5.16666667 -2.16666667 5.16666667 -5 4 C-10.53606492 3.26185801 -12.53861663 4.72417349 -16 9 Z " fill="#C2B7D0" transform="translate(821,234)"/>
<path d="M0 0 C4.00521133 4.24795141 4.46835151 8.31925844 4.30859375 13.9765625 C3.77549347 18.76600309 1.96877876 21.40767874 -1.625 24.5 C-6.18042843 26.82068996 -10.0956206 27.77137704 -15.0859375 26.74609375 C-19.69661369 25.24633848 -22.30733106 23.3957703 -24.9375 19.1875 C-26.47546708 14.57359876 -26.85979404 9.80400808 -25.21875 5.1484375 C-22.64999263 0.28022798 -19.72797561 -1.80482825 -14.6875 -3.625 C-9.31874376 -3.99105156 -4.56922379 -2.8193083 0 0 Z M-17.9375 5.1875 C-19.68077413 8.11937013 -19.9518242 9.83655716 -19.8125 13.25 C-18.78040273 16.71489798 -17.85102832 18.06141177 -14.9375 20.1875 C-11.34369396 21.33445938 -9.67003748 21.503823 -6.1875 20 C-3.77182947 18.05404318 -2.76420116 17.16362417 -1.9375 14.1875 C-2.1249953 10.68758778 -2.55968587 7.98510761 -4.0625 4.8125 C-8.53514047 0.93621159 -13.63362625 1.49846536 -17.9375 5.1875 Z " fill="#C0B5CE" transform="translate(731.9375,235.8125)"/>
<path d="M0 0 C4.00521133 4.24795141 4.46835151 8.31925844 4.30859375 13.9765625 C3.77549347 18.76600309 1.96877876 21.40767874 -1.625 24.5 C-6.18042843 26.82068996 -10.0956206 27.77137704 -15.0859375 26.74609375 C-19.69661369 25.24633848 -22.30733106 23.3957703 -24.9375 19.1875 C-26.47546708 14.57359876 -26.85979404 9.80400808 -25.21875 5.1484375 C-22.64999263 0.28022798 -19.72797561 -1.80482825 -14.6875 -3.625 C-9.31874376 -3.99105156 -4.56922379 -2.8193083 0 0 Z M-17.9375 5.1875 C-19.68077413 8.11937013 -19.9518242 9.83655716 -19.8125 13.25 C-18.78040273 16.71489798 -17.85102832 18.06141177 -14.9375 20.1875 C-11.34369396 21.33445938 -9.67003748 21.503823 -6.1875 20 C-3.77182947 18.05404318 -2.76420116 17.16362417 -1.9375 14.1875 C-2.07477068 10.34392102 -2.38206754 7.96921976 -4.625 4.8125 C-9.46056241 1.41453723 -13.38739314 1.39574428 -17.9375 5.1875 Z " fill="#C0B5CE" transform="translate(530.9375,235.8125)"/>
<path d="M0 0 C3.70648519 4.82966252 4.68313919 8.58454799 4.0625 14.6875 C2.68637008 18.72662727 1.06318145 21.82580208 -2.1875 24.625 C-8.43406517 27.03844563 -13.75174336 27.37188496 -19.9375 24.6875 C-23.06481616 21.78644961 -25.74365478 18.6323078 -26.17578125 14.296875 C-26.332933 8.2423969 -26.24884189 4.34841015 -21.9375 -0.3125 C-14.93854049 -5.51685451 -6.85963956 -5.40014178 0 0 Z M-17.9375 4.6875 C-20.26152951 7.89687409 -20.41320691 10.80256021 -19.9375 14.6875 C-18.5089939 17.6190113 -18.5089939 17.6190113 -15.9375 19.6875 C-12.53611914 20.59858416 -10.11703664 20.98238416 -6.6875 20.125 C-4.05947657 17.96626647 -3.09856125 15.86514131 -1.9375 12.6875 C-2.00973195 9.07590253 -2.49627329 7.29214402 -4.625 4.375 C-9.45378795 0.85128987 -13.31736049 0.96572095 -17.9375 4.6875 Z " fill="#C1B6CF" transform="translate(627.9375,236.3125)"/>
<path d="M0 0 C3.35624636 3.45495948 4.37977518 6.12293043 4.35546875 10.91796875 C4.35353516 11.80291016 4.35160156 12.68785156 4.34960938 13.59960938 C4.33124023 14.97342773 4.33124023 14.97342773 4.3125 16.375 C4.31185547 17.30248047 4.31121094 18.22996094 4.31054688 19.18554688 C4.26537187 26.04712813 4.26537187 26.04712813 3.125 27.1875 C1.45882885 27.22813832 -0.20888095 27.230221 -1.875 27.1875 C-1.91238281 26.01832031 -1.94976563 24.84914063 -1.98828125 23.64453125 C-2.0539628 22.09632325 -2.12040939 20.54814758 -2.1875 19 C-2.21005859 18.23107422 -2.23261719 17.46214844 -2.25585938 16.66992188 C-2.47124614 12.10763856 -2.87198548 8.85546774 -5.875 5.1875 C-9.51390922 4.10356959 -12.27944632 3.94288526 -15.875 5.1875 C-16.6545458 7.99497455 -17.0460149 10.60779808 -17.19140625 13.515625 C-17.23330078 14.31484375 -17.27519531 15.1140625 -17.31835938 15.9375 C-17.37733398 17.175 -17.37733398 17.175 -17.4375 18.4375 C-17.48068359 19.27796875 -17.52386719 20.1184375 -17.56835938 20.984375 C-17.67408543 23.05190671 -17.77501295 25.11968281 -17.875 27.1875 C-19.54111905 27.230221 -21.20882885 27.22813832 -22.875 27.1875 C-24.67779191 25.38470809 -24.00536605 22.64702299 -24.0078125 20.21875 C-24.00910156 19.00832031 -24.01039063 17.79789063 -24.01171875 16.55078125 C-24.00785156 15.27589844 -24.00398437 14.00101563 -24 12.6875 C-24.00386719 11.41261719 -24.00773438 10.13773438 -24.01171875 8.82421875 C-24.01042969 7.61378906 -24.00914062 6.40335938 -24.0078125 5.15625 C-24.00668457 4.03669922 -24.00555664 2.91714844 -24.00439453 1.76367188 C-23.875 -0.8125 -23.875 -0.8125 -22.875 -1.8125 C-21.20891013 -1.85634447 -19.54119446 -1.8521713 -17.875 -1.8125 C-15.05287812 -1.65438612 -15.05287812 -1.65438612 -13.1875 -2.375 C-8.23533758 -3.31189559 -4.18046672 -2.63551163 0 0 Z " fill="#BDB0CB" transform="translate(766.875,234.8125)"/>
<path d="M0 0 C7.59 0 15.18 0 23 0 C23 5.625 23 5.625 20.15625 9.20703125 C19.56972656 9.95791016 18.98320313 10.70878906 18.37890625 11.48242188 C17.75886719 12.25134766 17.13882813 13.02027344 16.5 13.8125 C15.87996094 14.60076172 15.25992188 15.38902344 14.62109375 16.20117188 C13.09126528 18.14287725 11.55085323 20.0750764 10 22 C10.84304688 22.04898438 11.68609375 22.09796875 12.5546875 22.1484375 C13.65039062 22.22320312 14.74609375 22.29796875 15.875 22.375 C16.96554687 22.44460937 18.05609375 22.51421875 19.1796875 22.5859375 C22 23 22 23 24 25 C23.67 26.32 23.34 27.64 23 29 C15.41 29 7.82 29 0 29 C0 23.375 0 23.375 2.84375 19.79296875 C3.43027344 19.04208984 4.01679687 18.29121094 4.62109375 17.51757812 C5.24113281 16.74865234 5.86117187 15.97972656 6.5 15.1875 C7.12003906 14.39923828 7.74007812 13.61097656 8.37890625 12.79882812 C9.90873472 10.85712275 11.44914677 8.9249236 13 7 C12.15695312 6.95101562 11.31390625 6.90203125 10.4453125 6.8515625 C8.80175781 6.73941406 8.80175781 6.73941406 7.125 6.625 C6.03445313 6.55539063 4.94390625 6.48578125 3.8203125 6.4140625 C1 6 1 6 -1 4 C-0.67 2.68 -0.34 1.36 0 0 Z " fill="#C1B6CF" transform="translate(679,233)"/>
<path d="M0 0 C1.65 0 3.3 0 5 0 C5 3.3 5 6.6 5 10 C7.31 10 9.62 10 12 10 C12 11.65 12 13.3 12 15 C9.69 15 7.38 15 5 15 C5.14063135 17.29199177 5.28765943 19.58359186 5.4375 21.875 C5.51871094 23.15117187 5.59992187 24.42734375 5.68359375 25.7421875 C5.79206027 28.88300152 5.79206027 28.88300152 7 31 C8.97888961 31.72693904 10.97954558 32.39816251 13 33 C13 34.65 13 36.3 13 38 C4.86330935 38.62589928 4.86330935 38.62589928 1.5 36.1875 C-1.43285661 31.91041744 -1.11904031 27.79239619 -1.0625 22.8125 C-1.05798828 22.06291016 -1.05347656 21.31332031 -1.04882812 20.54101562 C-1.03706354 18.69397617 -1.01912865 16.84697787 -1 15 C-2.65 14.67 -4.3 14.34 -6 14 C-5.67 12.68 -5.34 11.36 -5 10 C-3.68 10 -2.36 10 -1 10 C-1.01160156 9.36191406 -1.02320313 8.72382813 -1.03515625 8.06640625 C-1.04417969 7.24011719 -1.05320312 6.41382813 -1.0625 5.5625 C-1.07410156 4.73878906 -1.08570313 3.91507813 -1.09765625 3.06640625 C-1 1 -1 1 0 0 Z " fill="#BDB1CB" transform="translate(781,224)"/>
<path d="M0 0 C2.0625 0.25 2.0625 0.25 4 1 C5.47206013 3.94412027 5.23807192 6.96285915 5.31640625 10.1953125 C5.33718735 10.90275604 5.35796844 11.61019958 5.37937927 12.33908081 C5.44481078 14.60095425 5.50372974 16.86294462 5.5625 19.125 C5.60569133 20.65756422 5.64930582 22.19011657 5.69335938 23.72265625 C5.80048555 27.48165073 5.9017709 31.24076292 6 35 C7.65 35.66 9.3 36.32 11 37 C10.505 39.475 10.505 39.475 10 42 C3.64096386 42.48915663 3.64096386 42.48915663 0.625 40.1875 C-2.34832181 36.18495141 -2.16037759 32.33419102 -2.16796875 27.55859375 C-2.17129715 26.83511246 -2.17462555 26.11163116 -2.17805481 25.3662262 C-2.18311173 23.8389652 -2.18546352 22.31169319 -2.18530273 20.78442383 C-2.18749514 18.44268786 -2.20567948 16.10141863 -2.22460938 13.75976562 C-2.22754232 12.27604328 -2.22952778 10.7923187 -2.23046875 9.30859375 C-2.23765427 8.60649277 -2.24483978 7.90439178 -2.25224304 7.18101501 C-2.22883364 2.22883364 -2.22883364 2.22883364 0 0 Z " fill="#BEB2CC" transform="translate(493,220)"/>
<path d="M0 0 C2.21081851 0.10540926 2.21081851 0.10540926 5 -1 C12.05061082 -1.47469459 12.05061082 -1.47469459 15 0 C14.67 1.65 14.34 3.3 14 5 C13.31292969 5.06058594 12.62585938 5.12117188 11.91796875 5.18359375 C10.56638672 5.30927734 10.56638672 5.30927734 9.1875 5.4375 C7.84751953 5.55931641 7.84751953 5.55931641 6.48046875 5.68359375 C3.87256441 5.93489767 3.87256441 5.93489767 1 7 C0.67 13.93 0.34 20.86 0 28 C-1.65 28.33 -3.3 28.66 -5 29 C-6 28 -6 28 -6.11352539 25.31616211 C-6.10828857 24.14835205 -6.10305176 22.98054199 -6.09765625 21.77734375 C-6.09443359 20.51728516 -6.09121094 19.25722656 -6.08789062 17.95898438 C-6.07953403 16.61848891 -6.07106907 15.27799412 -6.0625 13.9375 C-6.0574866 12.59310058 -6.05292342 11.2486994 -6.04882812 9.90429688 C-6.03699488 6.60282059 -6.02050971 3.30143197 -6 0 C-3.48314464 -1.25842768 -2.63419763 -0.74086808 0 0 Z " fill="#D0E9E4" transform="translate(434,23)"/>
<path d="M0 0 C0.5625 1.9375 0.5625 1.9375 1 4 C-0.87040045 5.87040045 -4.13302441 5.36372715 -6.67578125 5.5234375 C-9.53677052 6.11006051 -10.86637647 7.01388353 -13 9 C-13.6374253 11.20554477 -13.6374253 11.20554477 -13.609375 13.66796875 C-13.64160156 14.56064453 -13.67382812 15.45332031 -13.70703125 16.37304688 C-13.72830078 17.76620117 -13.72830078 17.76620117 -13.75 19.1875 C-13.77964844 20.12787109 -13.80929687 21.06824219 -13.83984375 22.03710938 C-13.91053562 24.35815916 -13.96323165 26.67820535 -14 29 C-15.98 29 -17.96 29 -20 29 C-20 19.43 -20 9.86 -20 0 C-15 0 -15 0 -13 1 C-12.29875 0.67 -11.5975 0.34 -10.875 0 C-6.89126856 -1.38564572 -4.13599773 -0.70101656 0 0 Z " fill="#C3B8D0" transform="translate(659,233)"/>
<path d="M0 0 C3.8425303 0.72047443 5.45767292 1.57152696 8 4.5625 C8.8209459 8.34194906 8.47601805 11.47045859 6.9375 15 C4.01717965 17.35509706 1.70537805 17.49861417 -2 17.5625 C-4.94755732 16.21687601 -6.54277272 15.47695456 -8 12.5625 C-8.49512681 8.18887986 -8.49223866 6.24294756 -5.875 2.625 C-3 0.5625 -3 0.5625 0 0 Z " fill="#B6A9C6" transform="translate(718,83.4375)"/>
<path d="M0 0 C1.65 0 3.3 0 5 0 C5 9.57 5 19.14 5 29 C3.02 29 1.04 29 -1 29 C-1.02465881 25.03069011 -1.04284023 21.06140966 -1.05493164 17.09204102 C-1.05997057 15.74079614 -1.06680177 14.38955674 -1.07543945 13.03833008 C-1.08752419 11.09979566 -1.09269828 9.161222 -1.09765625 7.22265625 C-1.10289307 6.05484619 -1.10812988 4.88703613 -1.11352539 3.68383789 C-1 1 -1 1 0 0 Z " fill="#C1B6CF" transform="translate(666,233)"/>
<path d="M0 0 C1.26972656 0.00257813 2.53945313 0.00515625 3.84765625 0.0078125 C5.11480469 0.00523437 6.38195312 0.00265625 7.6875 0 C10.91015625 0.1328125 10.91015625 0.1328125 12.91015625 1.1328125 C12.95287725 2.79893155 12.95079457 4.46664135 12.91015625 6.1328125 C10.9289627 8.11400605 7.17570561 7.31781661 4.47265625 7.3203125 C3.43141602 7.33868164 3.43141602 7.33868164 2.36914062 7.35742188 C0.54794724 7.36271092 -1.27271295 7.25450457 -3.08984375 7.1328125 C-3.74984375 6.4728125 -4.40984375 5.8128125 -5.08984375 5.1328125 C-4.48225718 1.12274117 -4.20832419 0.18088878 0 0 Z " fill="#B7AAC7" transform="translate(850.08984375,243.8671875)"/>
<path d="M0 0 C2.625 0.375 2.625 0.375 5 1 C5.625 3.375 5.625 3.375 6 6 C5.34 6.66 4.68 7.32 4 8 C1.375 7.625 1.375 7.625 -1 7 C-1.625 4.625 -1.625 4.625 -2 2 C-1.34 1.34 -0.68 0.68 0 0 Z " fill="#CDC4D8" transform="translate(666,221)"/>
</svg>
